REM DIRINDEX 1\2,1\3,1\4
REM DIRNAME folder01,folder02,folder03,folder04
TITLE ""
FILE "DISC2Track24.mp3" MP3
  TRACK 01 AUDIO
    TITLE "0:"
    INDEX 01 00:00:00
  TRACK 02 AUDIO
    TITLE "4:cjc105_3399"
    INDEX 01 00:00:15
  TRACK 03 AUDIO
    TITLE "0:"
    INDEX 01 00:03:14
  TRACK 04 AUDIO
    TITLE "3:cjc105_3400"
    INDEX 01 00:03:61
  TRACK 05 AUDIO
    TITLE "2:cjc105_3401"
    INDEX 01 00:04:68
  TRACK 06 AUDIO
    TITLE "3:cjc105_3402"
    INDEX 01 00:06:63
  TRACK 07 AUDIO
    TITLE "2:cjc105_3403"
    INDEX 01 00:07:56
  TRACK 08 AUDIO
    TITLE "3:cjc105_3404"
    INDEX 01 00:08:58
  TRACK 09 AUDIO
    TITLE "2:cjc105_3405"
    INDEX 01 00:09:65
  TRACK 10 AUDIO
    TITLE "3:cjc105_3406"
    INDEX 01 00:10:68
  TRACK 11 AUDIO
    TITLE "2:cjc105_3407"
    INDEX 01 00:11:68
  TRACK 12 AUDIO
    TITLE "3:cjc105_3408"
    INDEX 01 00:13:14
  TRACK 13 AUDIO
    TITLE "2:cjc105_3409"
    INDEX 01 00:14:33
  TRACK 14 AUDIO
    TITLE "3:cjc105_3410"
    INDEX 01 00:15:48
  TRACK 15 AUDIO
    TITLE "2:cjc105_3411"
    INDEX 01 00:16:48
  TRACK 16 AUDIO
    TITLE "3:cjc105_3412"
    INDEX 01 00:19:58
  TRACK 17 AUDIO
    TITLE "2:cjc105_3413"
    INDEX 01 00:20:57
  TRACK 18 AUDIO
    TITLE "3:cjc105_3414"
    INDEX 01 00:22:03
  TRACK 19 AUDIO
    TITLE "2:cjc105_3415"
    INDEX 01 00:23:16
  TRACK 20 AUDIO
    TITLE "3:cjc105_3416"
    INDEX 01 00:24:43
  TRACK 21 AUDIO
    TITLE "2:cjc105_3417"
    INDEX 01 00:25:31
  TRACK 22 AUDIO
    TITLE "3:cjc105_3418"
    INDEX 01 00:26:38
  TRACK 23 AUDIO
    TITLE "2:cjc105_3419"
    INDEX 01 00:27:43
  TRACK 24 AUDIO
    TITLE "3:cjc105_3420"
    INDEX 01 00:28:53
  TRACK 25 AUDIO
    TITLE "2:cjc105_3421"
    INDEX 01 00:29:52
  TRACK 26 AUDIO
    TITLE "3:cjc105_3422"
    INDEX 01 00:31:24
  TRACK 27 AUDIO
    TITLE "2:cjc105_3423"
    INDEX 01 00:32:58
  TRACK 28 AUDIO
    TITLE "3:cjc105_3424"
    INDEX 01 00:33:64
  TRACK 29 AUDIO
    TITLE "2:cjc105_3425"
    INDEX 01 00:34:71
  TRACK 30 AUDIO
    TITLE "3:cjc105_3426"
    INDEX 01 00:36:21
  TRACK 31 AUDIO
    TITLE "2:cjc105_3427"
    INDEX 01 00:37:10
  TRACK 32 AUDIO
    TITLE "3:cjc105_3428"
    INDEX 01 00:38:33
  TRACK 33 AUDIO
    TITLE "2:cjc105_3429"
    INDEX 01 00:39:52
  TRACK 34 AUDIO
    TITLE "3:cjc105_3430"
    INDEX 01 00:40:62
  TRACK 35 AUDIO
    TITLE "2:cjc105_3431"
    INDEX 01 00:41:73
  TRACK 36 AUDIO
    TITLE "3:cjc105_3432"
    INDEX 01 00:43:09
  TRACK 37 AUDIO
    TITLE "2:cjc105_3433"
    INDEX 01 00:44:11
  TRACK 38 AUDIO
    TITLE "3:cjc105_3434"
    INDEX 01 00:45:28
  TRACK 39 AUDIO
    TITLE "2:cjc105_3435"
    INDEX 01 00:46:21
  TRACK 40 AUDIO
    TITLE "3:cjc105_3436"
    INDEX 01 00:47:62
  TRACK 41 AUDIO
    TITLE "2:cjc105_3437"
    INDEX 01 00:49:57
  TRACK 42 AUDIO
    TITLE "3:cjc105_3438"
    INDEX 01 00:52:08
  TRACK 43 AUDIO
    TITLE "2:cjc105_3439"
    INDEX 01 00:53:13
  TRACK 44 AUDIO
    TITLE "3:cjc105_3440"
    INDEX 01 00:55:03
  TRACK 45 AUDIO
    TITLE "2:cjc105_3441"
    INDEX 01 00:56:37
  TRACK 46 AUDIO
    TITLE "3:cjc105_3442"
    INDEX 01 00:58:44
  TRACK 47 AUDIO
    TITLE "2:cjc105_3443"
    INDEX 01 01:00:08
  TRACK 48 AUDIO
    TITLE "3:cjc105_3444"
    INDEX 01 01:01:36
  TRACK 49 AUDIO
    TITLE "2:cjc105_3445"
    INDEX 01 01:02:30
  TRACK 50 AUDIO
    TITLE "3:cjc105_3446"
    INDEX 01 01:03:59
  TRACK 51 AUDIO
    TITLE "2:cjc105_3447"
    INDEX 01 01:04:56
  TRACK 52 AUDIO
    TITLE "3:cjc105_3448"
    INDEX 01 01:06:45
  TRACK 53 AUDIO
    TITLE "2:cjc105_3449"
    INDEX 01 01:07:74
  TRACK 54 AUDIO
    TITLE "3:cjc105_3450"
    INDEX 01 01:09:59
  TRACK 55 AUDIO
    TITLE "2:cjc105_3451"
    INDEX 01 01:11:02
  TRACK 56 AUDIO
    TITLE "3:cjc105_3452"
    INDEX 01 01:12:28
  TRACK 57 AUDIO
    TITLE "2:cjc105_3453"
    INDEX 01 01:14:25
  TRACK 58 AUDIO
    TITLE "3:cjc105_3454"
    INDEX 01 01:16:20
  TRACK 59 AUDIO
    TITLE "2:cjc105_3455"
    INDEX 01 01:18:25
  TRACK 60 AUDIO
    TITLE "3:cjc105_3456"
    INDEX 01 01:20:08
  TRACK 61 AUDIO
    TITLE "2:cjc105_3457"
    INDEX 01 01:21:63
  TRACK 62 AUDIO
    TITLE "3:cjc105_3458"
    INDEX 01 01:22:68
  TRACK 63 AUDIO
    TITLE "2:cjc105_3459"
    INDEX 01 01:23:73
  TRACK 64 AUDIO
    TITLE "0:"
    INDEX 01 01:26:70
